# xmcd CD database file
#
# Track frame offsets:
#	150
#	23841
#	47478
#	66377
#	84250
#	105918
#	128068
#	150017
#	171769
#
# Disc length: 2598 seconds
#
# Revision: 0
# Processed by: cddbd v1.5.1PL2 Copyright (c) Steve Scherf et al.
# Submitted via: CDex 1.51
#
DISCID=5b0a2409
DTITLE=Paul Thomas Yoder - Dreamin'
DYEAR=2004
DGENRE=Jazz
TTITLE0=Dreamin'
TTITLE1=Sadeness
TTITLE2=True Faith
TTITLE3=Black Cat, Black Hat
TTITLE4=Walkin' On the Pier
TTITLE5=Cruisin' 4-A Fusion
TTITLE6=Hypnotize
TTITLE7=Stand Back
TTITLE8=Broken Wings
EXTD=YEAR: 2004
EXTT0=
EXTT1=
EXTT2=
EXTT3=
EXTT4=
EXTT5=
EXTT6=
EXTT7=
EXTT8=
PLAYORDER=
